<svg width="19" height="18" fill="none" xmlns="http://www.w3.org/2000/svg"><g fill="#2E4049"><path d="M13.197 1.902c.984.003 1.927.38 2.623 1.05a3.521 3.521 0 0 1 1.091 2.526v7.153a3.521 3.521 0 0 1-1.09 2.525 3.8 3.8 0 0 1-2.624 1.051H5.77a3.8 3.8 0 0 1-2.623-1.05 3.522 3.522 0 0 1-1.091-2.526V5.478a3.521 3.521 0 0 1 1.09-2.525A3.799 3.799 0 0 1 5.77 1.902h7.427Zm0-1.43H5.77C2.91.472.57 2.725.57 5.478v7.153c0 2.753 2.34 5.006 5.2 5.006h7.427c2.86 0 5.2-2.253 5.2-5.006V5.478c0-2.753-2.34-5.006-5.2-5.006Z"/><path d="M14.312 5.479c-.22 0-.436-.063-.62-.181a1.082 1.082 0 0 1-.41-.482 1.035 1.035 0 0 1-.063-.62c.043-.208.15-.399.305-.549.156-.15.354-.252.57-.293.216-.042.44-.02.644.06.204.082.378.22.5.396a1.045 1.045 0 0 1-.138 1.355 1.149 1.149 0 0 1-.788.314Zm-4.828.715c.588 0 1.162.168 1.65.482.49.314.87.761 1.095 1.284.225.523.284 1.098.169 1.653a2.83 2.83 0 0 1-.813 1.465c-.416.4-.945.673-1.522.783a3.077 3.077 0 0 1-1.716-.163 2.95 2.95 0 0 1-1.334-1.054 2.786 2.786 0 0 1-.5-1.59c0-.758.314-1.485.87-2.021a3.033 3.033 0 0 1 2.1-.84Zm0-1.43a4.58 4.58 0 0 0-2.476.723 4.33 4.33 0 0 0-1.641 1.926 4.144 4.144 0 0 0-.254 2.48 4.245 4.245 0 0 0 1.22 2.196 4.512 4.512 0 0 0 2.281 1.175c.865.166 1.761.08 2.575-.244a4.425 4.425 0 0 0 2-1.58 4.18 4.18 0 0 0 .751-2.385c0-1.138-.47-2.23-1.305-3.035a4.545 4.545 0 0 0-3.151-1.257Z"/></g></svg>