<svg width="274" height="51" viewBox="0 0 274 51" fill="none" xmlns="http://www.w3.org/2000/svg">
<path d="M28.785 41C28.6217 41 28.54 40.8717 28.54 40.615C28.54 40.3583 28.6217 40.23 28.785 40.23H29.17C30.01 40.23 30.6983 40.02 31.235 39.6C31.795 39.18 32.075 38.375 32.075 37.185V18.88C32.075 17.69 31.795 16.8967 31.235 16.5C30.675 16.08 29.9867 15.87 29.17 15.87H28.785C28.6217 15.87 28.54 15.7417 28.54 15.485C28.54 15.2283 28.6217 15.1 28.785 15.1L37.15 15.065C39.9033 15.065 41.7817 15.0767 42.785 15.1C44.3017 15.1 45.7133 15.3567 47.02 15.87C48.35 16.36 49.4117 17.0717 50.205 18.005C50.9983 18.915 51.395 19.9767 51.395 21.19C51.395 22.7533 50.7417 24.025 49.435 25.005C48.1517 25.985 46.53 26.7083 44.57 27.175C46.88 27.665 48.84 28.4583 50.45 29.555C52.06 30.6283 52.865 32.0633 52.865 33.86C52.865 35.33 52.41 36.6017 51.5 37.675C50.59 38.7483 49.3767 39.5767 47.86 40.16C46.3433 40.72 44.6983 41 42.925 41L36.94 41.035L28.785 41ZM38.095 26.65C40.1483 26.65 41.7233 26.3933 42.82 25.88C43.94 25.3667 44.6867 24.7133 45.06 23.92C45.4333 23.1033 45.62 22.1467 45.62 21.05C45.62 19.6033 45.1883 18.425 44.325 17.515C43.4617 16.5817 42.085 16.115 40.195 16.115C39.1683 16.115 38.4217 16.29 37.955 16.64C37.5117 16.9667 37.29 17.5267 37.29 18.32V26.65H38.095ZM41.14 39.95C42.9833 39.95 44.43 39.4367 45.48 38.41C46.5533 37.36 47.09 35.8317 47.09 33.825C47.09 31.935 46.4483 30.4417 45.165 29.345C43.905 28.2483 41.5483 27.7 38.095 27.7H37.29V37.745C37.29 38.585 37.5117 39.1683 37.955 39.495C38.3983 39.7983 39.145 39.95 40.195 39.95H41.14ZM67.2995 23.535C68.3028 23.535 69.1078 23.815 69.7145 24.375C70.3445 24.935 70.6595 25.5767 70.6595 26.3C70.6595 26.86 70.4612 27.3267 70.0645 27.7C69.6912 28.0733 69.2128 28.26 68.6295 28.26C68.2328 28.26 67.8828 28.1783 67.5795 28.015C67.2762 27.8283 66.9262 27.5717 66.5295 27.245C66.2028 26.9417 65.9112 26.72 65.6545 26.58C65.3978 26.4167 65.1178 26.335 64.8145 26.335C64.2778 26.335 63.7878 26.6267 63.3445 27.21C62.9012 27.7933 62.5162 28.5633 62.1895 29.52V38.445C62.1895 39.1683 62.3528 39.6467 62.6795 39.88C63.0062 40.09 63.4962 40.195 64.1495 40.195H64.5345C64.6978 40.195 64.7795 40.335 64.7795 40.615C64.7795 40.8717 64.6978 41 64.5345 41H55.3295C55.1662 41 55.0845 40.8717 55.0845 40.615C55.0845 40.335 55.1662 40.195 55.3295 40.195H55.6795C56.3328 40.195 56.8228 40.09 57.1495 39.88C57.4762 39.6467 57.6395 39.1683 57.6395 38.445V27.63C57.6395 26.8833 57.4762 26.3933 57.1495 26.16C56.8228 25.9033 56.2745 25.7633 55.5045 25.74C55.3878 25.7167 55.3062 25.6467 55.2595 25.53C55.2128 25.4133 55.1895 25.2967 55.1895 25.18C55.1895 25.04 55.2595 24.9583 55.3995 24.935C55.6095 24.865 57.8728 24.41 62.1895 23.57V27.63C62.8195 26.37 63.5778 25.3783 64.4645 24.655C65.3745 23.9083 66.3195 23.535 67.2995 23.535ZM76.63 20.21C75.86 20.21 75.2067 19.9417 74.67 19.405C74.1333 18.8683 73.865 18.2267 73.865 17.48C73.865 16.71 74.1333 16.0567 74.67 15.52C75.2067 14.9833 75.86 14.715 76.63 14.715C77.3767 14.715 78.0183 14.9833 78.555 15.52C79.115 16.0567 79.395 16.71 79.395 17.48C79.395 18.2267 79.115 18.8683 78.555 19.405C78.0183 19.9417 77.3767 20.21 76.63 20.21ZM72.045 41C71.8817 41 71.8 40.86 71.8 40.58C71.8 40.3233 71.8817 40.195 72.045 40.195H72.43C73.1067 40.195 73.6317 40.09 74.005 39.88C74.3783 39.6467 74.565 39.1683 74.565 38.445V27.665C74.565 26.9183 74.4017 26.4283 74.075 26.195C73.7717 25.9383 73.2233 25.7867 72.43 25.74C72.22 25.74 72.115 25.565 72.115 25.215C72.115 25.0517 72.185 24.9583 72.325 24.935C72.5583 24.865 74.8217 24.41 79.115 23.57V38.445C79.115 39.1683 79.3017 39.6467 79.675 39.88C80.0717 40.09 80.6083 40.195 81.285 40.195H81.67C81.8333 40.195 81.915 40.3233 81.915 40.58C81.915 40.86 81.8333 41 81.67 41H72.045ZM99.7871 25.145C99.3205 25.145 98.9238 25.3317 98.5971 25.705C99.8338 26.8717 100.452 28.2017 100.452 29.695C100.452 30.815 100.125 31.83 99.4721 32.74C98.8188 33.65 97.8971 34.3733 96.7071 34.91C95.5405 35.4233 94.1871 35.68 92.6471 35.68C91.8071 35.68 90.9788 35.5867 90.1621 35.4C89.4621 35.7267 89.1121 36.03 89.1121 36.31C89.1121 36.52 89.2521 36.695 89.5321 36.835C89.8121 36.975 90.4071 37.1267 91.3171 37.29C92.3205 37.4533 93.5455 37.6867 94.9921 37.99C96.4388 38.2933 97.6405 38.5733 98.5971 38.83C99.7871 39.1333 100.744 39.6 101.467 40.23C102.19 40.8367 102.552 41.6067 102.552 42.54C102.552 43.7767 102.015 44.7917 100.942 45.585C99.8921 46.4017 98.5971 46.985 97.0571 47.335C95.5171 47.685 94.0005 47.86 92.5071 47.86C90.4538 47.86 88.7738 47.6383 87.4671 47.195C86.1838 46.775 85.2505 46.25 84.6671 45.62C84.1071 44.99 83.8271 44.3483 83.8271 43.695C83.8271 43.0183 84.1771 42.4117 84.8771 41.875C85.5771 41.3617 86.6388 40.8717 88.0621 40.405C87.1288 40.125 86.4171 39.7983 85.9271 39.425C85.4605 39.0283 85.2271 38.62 85.2271 38.2C85.2271 37.29 86.5105 36.2517 89.0771 35.085C87.7471 34.6183 86.6738 33.9183 85.8571 32.985C85.0638 32.0517 84.6671 30.9783 84.6671 29.765C84.6671 28.5517 85.0405 27.4783 85.7871 26.545C86.5571 25.5883 87.5371 24.8533 88.7271 24.34C89.9405 23.8267 91.1888 23.57 92.4721 23.57C93.4755 23.57 94.4438 23.71 95.3771 23.99C96.3338 24.2467 97.1738 24.6317 97.8971 25.145C98.3405 24.1417 98.9005 23.325 99.5771 22.695C100.254 22.0417 101.07 21.715 102.027 21.715C102.75 21.715 103.31 21.9483 103.707 22.415C104.127 22.8817 104.337 23.3833 104.337 23.92C104.337 24.4567 104.174 24.9233 103.847 25.32C103.52 25.7167 103.03 25.915 102.377 25.915C102.167 25.915 101.934 25.88 101.677 25.81C101.444 25.7167 101.222 25.6233 101.012 25.53C100.499 25.2733 100.09 25.145 99.7871 25.145ZM92.4721 34.84C93.7555 34.84 94.6655 34.2683 95.2021 33.125C95.7388 31.9583 96.0071 30.6867 96.0071 29.31C96.0071 28.0967 95.7155 26.9883 95.1321 25.985C94.5721 24.9583 93.7205 24.445 92.5771 24.445C91.7838 24.445 91.1305 24.7483 90.6171 25.355C90.1038 25.9383 89.7305 26.65 89.4971 27.49C89.2638 28.33 89.1471 29.1233 89.1471 29.87C89.1471 31.1767 89.4505 32.3317 90.0571 33.335C90.6638 34.3383 91.4688 34.84 92.4721 34.84ZM96.4621 42.26C95.8555 42.0733 94.8638 41.8283 93.4871 41.525C92.1105 41.2217 90.8155 40.965 89.6021 40.755C88.9721 41.1517 88.4355 41.595 87.9921 42.085C87.5721 42.575 87.3621 43.0533 87.3621 43.52C87.3621 44.08 87.6188 44.6167 88.1321 45.13C88.6455 45.6433 89.3571 46.0633 90.2671 46.39C91.1771 46.7167 92.1805 46.88 93.2771 46.88C94.4205 46.88 95.3771 46.7167 96.1471 46.39C96.9405 46.0633 97.5238 45.6783 97.8971 45.235C98.2938 44.7917 98.4921 44.3833 98.4921 44.01C98.4921 43.6133 98.3055 43.2633 97.9321 42.96C97.5588 42.6567 97.0688 42.4233 96.4621 42.26ZM126.595 40.195C126.758 40.195 126.84 40.335 126.84 40.615C126.84 40.8717 126.758 41 126.595 41H117.425C117.238 41 117.145 40.8717 117.145 40.615C117.145 40.335 117.238 40.195 117.425 40.195H117.775C118.428 40.195 118.918 40.09 119.245 39.88C119.571 39.6467 119.735 39.1683 119.735 38.445C119.781 36.1817 119.805 34.1983 119.805 32.495C119.805 31.2583 119.781 30.1733 119.735 29.24C119.665 28.0267 119.42 27.07 119 26.37C118.603 25.67 117.915 25.32 116.935 25.32C115.558 25.32 114.31 26.2533 113.19 28.12V38.445C113.19 39.1683 113.353 39.6467 113.68 39.88C114.006 40.09 114.496 40.195 115.15 40.195H115.5C115.686 40.195 115.78 40.335 115.78 40.615C115.78 40.8717 115.686 41 115.5 41H106.295C106.131 41 106.05 40.8717 106.05 40.615C106.05 40.335 106.131 40.195 106.295 40.195H106.68C107.333 40.195 107.823 40.09 108.15 39.88C108.476 39.6467 108.64 39.1683 108.64 38.445L108.605 18.775C108.605 18.0283 108.453 17.5383 108.15 17.305C107.846 17.0483 107.298 16.8967 106.505 16.85C106.341 16.85 106.236 16.745 106.19 16.535V16.325C106.19 16.185 106.26 16.1033 106.4 16.08C106.61 16.01 108.873 15.555 113.19 14.715V26.65C113.82 25.7167 114.578 24.97 115.465 24.41C116.375 23.85 117.378 23.57 118.475 23.57C119.735 23.57 120.796 23.8383 121.66 24.375C122.523 24.8883 123.165 25.565 123.585 26.405C124.005 27.2217 124.226 28.085 124.25 28.995V32.32V38.445C124.25 39.1683 124.413 39.6467 124.74 39.88C125.09 40.09 125.58 40.195 126.21 40.195H126.595ZM136.405 41.455C134.795 41.455 133.57 41 132.73 40.09C131.89 39.1567 131.447 37.8033 131.4 36.03V25.145H128.285V23.955C130.058 23.605 131.552 22.8817 132.765 21.785C134.002 20.6883 134.83 18.9967 135.25 16.71H135.95V23.955H140.325V25.145H135.95L135.88 33.055C135.88 34.6183 135.892 35.5517 135.915 35.855C135.985 37.185 136.23 38.1067 136.65 38.62C137.093 39.11 137.677 39.355 138.4 39.355C138.867 39.355 139.275 39.2617 139.625 39.075C139.975 38.865 140.395 38.515 140.885 38.025C141.002 37.885 141.107 37.815 141.2 37.815C141.293 37.815 141.387 37.8617 141.48 37.955C141.597 38.0483 141.655 38.1417 141.655 38.235C141.655 38.2817 141.632 38.3517 141.585 38.445C140.862 39.5417 140.08 40.3233 139.24 40.79C138.4 41.2333 137.455 41.455 136.405 41.455ZM159.069 36.52C159.209 36.6133 159.279 36.73 159.279 36.87L159.244 37.08C158.708 38.2233 157.833 39.2383 156.619 40.125C155.429 41.0117 153.948 41.455 152.174 41.455C150.424 41.455 148.838 41.0583 147.414 40.265C146.014 39.4483 144.918 38.3633 144.124 37.01C143.354 35.6567 142.969 34.1983 142.969 32.635C142.969 31.2117 143.308 29.8 143.984 28.4C144.684 27 145.699 25.845 147.029 24.935C148.359 24.025 149.934 23.57 151.754 23.57C153.038 23.57 154.239 23.8733 155.359 24.48C156.479 25.0867 157.401 25.9617 158.124 27.105C158.871 28.225 159.326 29.555 159.489 31.095L147.869 31.165C147.846 31.3983 147.834 31.795 147.834 32.355C147.834 34.3383 148.266 36.065 149.129 37.535C150.016 38.9817 151.369 39.705 153.189 39.705C155.359 39.705 157.144 38.6783 158.544 36.625C158.614 36.5083 158.719 36.45 158.859 36.45C158.906 36.45 158.976 36.4733 159.069 36.52ZM151.649 24.48C150.949 24.48 150.214 24.8533 149.444 25.6C148.698 26.3467 148.208 27.805 147.974 29.975L154.869 29.905V29.24C154.869 27.7933 154.554 26.6383 153.924 25.775C153.294 24.9117 152.536 24.48 151.649 24.48ZM174.316 23.535C175.319 23.535 176.124 23.815 176.731 24.375C177.361 24.935 177.676 25.5767 177.676 26.3C177.676 26.86 177.478 27.3267 177.081 27.7C176.708 28.0733 176.229 28.26 175.646 28.26C175.249 28.26 174.899 28.1783 174.596 28.015C174.293 27.8283 173.943 27.5717 173.546 27.245C173.219 26.9417 172.928 26.72 172.671 26.58C172.414 26.4167 172.134 26.335 171.831 26.335C171.294 26.335 170.804 26.6267 170.361 27.21C169.918 27.7933 169.533 28.5633 169.206 29.52V38.445C169.206 39.1683 169.369 39.6467 169.696 39.88C170.023 40.09 170.513 40.195 171.166 40.195H171.551C171.714 40.195 171.796 40.335 171.796 40.615C171.796 40.8717 171.714 41 171.551 41H162.346C162.183 41 162.101 40.8717 162.101 40.615C162.101 40.335 162.183 40.195 162.346 40.195H162.696C163.349 40.195 163.839 40.09 164.166 39.88C164.493 39.6467 164.656 39.1683 164.656 38.445V27.63C164.656 26.8833 164.493 26.3933 164.166 26.16C163.839 25.9033 163.291 25.7633 162.521 25.74C162.404 25.7167 162.323 25.6467 162.276 25.53C162.229 25.4133 162.206 25.2967 162.206 25.18C162.206 25.04 162.276 24.9583 162.416 24.935C162.626 24.865 164.889 24.41 169.206 23.57V27.63C169.836 26.37 170.594 25.3783 171.481 24.655C172.391 23.9083 173.336 23.535 174.316 23.535ZM188.336 41C188.242 41 188.172 40.965 188.126 40.895C188.102 40.825 188.091 40.72 188.091 40.58C188.091 40.3467 188.172 40.23 188.336 40.23H188.721C189.561 40.23 190.261 40.0317 190.821 39.635C191.381 39.215 191.661 38.41 191.661 37.22V18.88C191.661 17.69 191.381 16.8967 190.821 16.5C190.261 16.08 189.561 15.87 188.721 15.87H188.336C188.242 15.87 188.172 15.835 188.126 15.765C188.102 15.695 188.091 15.59 188.091 15.45C188.091 15.2167 188.172 15.1 188.336 15.1C191.066 15.0533 193.562 15.03 195.826 15.03C198.299 15.03 199.921 15.0533 200.691 15.1C202.557 15.2167 204.436 15.73 206.326 16.64C208.216 17.55 209.802 18.9617 211.086 20.875C212.392 22.765 213.046 25.1567 213.046 28.05C213.046 30.9433 212.392 33.3467 211.086 35.26C209.802 37.15 208.216 38.55 206.326 39.46C204.436 40.37 202.557 40.8833 200.691 41C199.944 41.0467 198.357 41.07 195.931 41.07C193.644 41.07 191.112 41.0467 188.336 41ZM199.711 39.95C200.971 39.95 202.196 39.6233 203.386 38.97C204.576 38.3167 205.579 37.1033 206.396 35.33C207.236 33.5567 207.656 31.13 207.656 28.05C207.656 24.97 207.236 22.5433 206.396 20.77C205.579 18.9967 204.576 17.7833 203.386 17.13C202.196 16.4767 200.971 16.15 199.711 16.15H199.466C198.392 16.15 197.646 16.3133 197.226 16.64C196.806 16.9667 196.596 17.5383 196.596 18.355V37.745C196.596 38.585 196.806 39.1683 197.226 39.495C197.646 39.7983 198.392 39.95 199.466 39.95H199.711ZM234.662 37.815C234.732 37.815 234.79 37.8383 234.837 37.885C234.907 37.9317 234.942 38.0017 234.942 38.095L234.907 38.27C234.627 39.1567 234.102 39.9033 233.332 40.51C232.562 41.0933 231.733 41.385 230.847 41.385C229.097 41.385 227.953 40.615 227.417 39.075C226.507 39.8683 225.48 40.475 224.337 40.895C223.193 41.2917 222.085 41.49 221.012 41.49C219.542 41.49 218.387 41.1517 217.547 40.475C216.73 39.775 216.322 38.8183 216.322 37.605C216.322 35.785 217.348 34.3383 219.402 33.265C219.962 32.985 220.568 32.7633 221.222 32.6C221.875 32.4367 222.75 32.25 223.847 32.04C225.083 31.83 226.168 31.5967 227.102 31.34V29.765C227.102 28.3417 227.067 27.35 226.997 26.79C226.927 26.2067 226.752 25.7283 226.472 25.355C226.005 24.795 225.387 24.515 224.617 24.515C224.033 24.515 223.52 24.7017 223.077 25.075C222.657 25.4483 222.307 26.23 222.027 27.42C221.817 28.2833 221.478 28.925 221.012 29.345C220.568 29.765 220.055 29.975 219.472 29.975C218.888 29.975 218.375 29.8117 217.932 29.485C217.488 29.135 217.267 28.6567 217.267 28.05C217.267 27.5833 217.442 27.0117 217.792 26.335C218.165 25.635 218.888 25.005 219.962 24.445C221.058 23.8617 222.587 23.57 224.547 23.57C227.3 23.57 229.318 24.27 230.602 25.67C231.022 26.1367 231.302 26.6617 231.442 27.245C231.605 27.805 231.687 28.505 231.687 29.345L231.652 33.195C231.628 33.965 231.617 35.155 231.617 36.765C231.617 37.7917 231.722 38.4567 231.932 38.76C232.142 39.04 232.422 39.18 232.772 39.18C233.052 39.18 233.332 39.0867 233.612 38.9C233.915 38.69 234.183 38.3867 234.417 37.99C234.487 37.8733 234.568 37.815 234.662 37.815ZM223.707 39.495C224.29 39.495 224.873 39.39 225.457 39.18C226.063 38.9467 226.635 38.6083 227.172 38.165C227.078 37.5817 227.032 36.8933 227.032 36.1L227.067 32.25C224.943 32.81 223.403 33.51 222.447 34.35C221.49 35.1667 221.012 36.17 221.012 37.36C221.012 38.0133 221.257 38.5383 221.747 38.935C222.237 39.3083 222.89 39.495 223.707 39.495ZM255.038 23.955C255.201 23.955 255.283 24.0833 255.283 24.34C255.283 24.48 255.248 24.5733 255.178 24.62C255.108 24.6667 255.014 24.7017 254.898 24.725C254.781 24.7483 254.699 24.7717 254.653 24.795C254.069 24.935 253.556 25.2267 253.113 25.67C252.693 26.09 252.226 26.8367 251.713 27.91C250.873 29.6833 249.776 32.0283 248.423 34.945C247.069 37.8383 245.833 40.51 244.713 42.96C243.709 45.13 242.718 46.6583 241.738 47.545C240.758 48.455 239.743 48.91 238.693 48.91C237.503 48.91 236.616 48.6533 236.033 48.14C235.449 47.6267 235.158 47.055 235.158 46.425C235.158 45.8183 235.356 45.3283 235.753 44.955C236.149 44.5817 236.651 44.395 237.258 44.395C237.654 44.395 237.981 44.4417 238.238 44.535C238.518 44.6283 238.833 44.7683 239.183 44.955C239.486 45.1417 239.766 45.27 240.023 45.34C240.279 45.4333 240.583 45.48 240.933 45.48C241.376 45.48 241.761 45.2817 242.088 44.885C242.438 44.5117 242.846 43.87 243.313 42.96L244.433 40.65C243.803 39.2733 243.091 37.675 242.298 35.855C239.591 29.8583 238.156 26.6967 237.993 26.37C237.689 25.7633 237.386 25.3433 237.083 25.11C236.779 24.8767 236.336 24.76 235.753 24.76C235.589 24.76 235.508 24.62 235.508 24.34C235.508 24.0833 235.589 23.955 235.753 23.955H244.293C244.456 23.955 244.538 24.0833 244.538 24.34C244.538 24.5967 244.444 24.7367 244.258 24.76C243.768 24.8067 243.383 24.9233 243.103 25.11C242.846 25.2967 242.718 25.5183 242.718 25.775C242.718 25.9383 242.776 26.1717 242.893 26.475C243.033 26.8717 243.546 28.1317 244.433 30.255C245.343 32.3783 246.124 34.1867 246.778 35.68C246.918 35.3767 247.069 35.05 247.233 34.7C247.396 34.3267 247.583 33.93 247.793 33.51C248.073 32.9033 248.551 31.8417 249.228 30.325C249.928 28.8083 250.336 27.8517 250.453 27.455C250.569 27.1517 250.628 26.8833 250.628 26.65C250.628 26.02 250.336 25.5417 249.753 25.215C249.169 24.8883 248.551 24.725 247.898 24.725C247.734 24.725 247.653 24.5967 247.653 24.34C247.653 24.0833 247.734 23.955 247.898 23.955H255.038ZM256.826 35.54L256.791 35.365C256.791 35.1783 256.884 35.05 257.071 34.98C257.118 34.9567 257.188 34.945 257.281 34.945C257.444 34.945 257.573 35.0267 257.666 35.19C259.813 38.62 262.333 40.335 265.226 40.335C266.299 40.335 267.081 40.09 267.571 39.6C268.084 39.0867 268.341 38.4567 268.341 37.71C268.341 37.1967 268.178 36.73 267.851 36.31C267.524 35.8667 267.058 35.5167 266.451 35.26C265.728 34.9567 264.678 34.595 263.301 34.175C262.741 34.0117 262.181 33.8367 261.621 33.65C261.084 33.4633 260.653 33.2883 260.326 33.125C259.439 32.6817 258.728 32.0983 258.191 31.375C257.654 30.6283 257.386 29.765 257.386 28.785C257.386 27.8517 257.619 26.9883 258.086 26.195C258.576 25.4017 259.253 24.7717 260.116 24.305C261.003 23.815 262.006 23.57 263.126 23.57C263.826 23.57 264.456 23.6283 265.016 23.745C265.576 23.8617 266.276 24.025 267.116 24.235C267.653 24.3983 267.991 24.48 268.131 24.48C268.458 24.48 268.784 24.375 269.111 24.165C269.461 23.9317 269.741 23.6283 269.951 23.255L271.491 28.61L271.526 28.82C271.526 28.96 271.433 29.0767 271.246 29.17C271.153 29.2167 271.059 29.24 270.966 29.24C270.826 29.24 270.709 29.17 270.616 29.03C269.589 27.4667 268.364 26.3467 266.941 25.67C265.541 24.97 264.293 24.62 263.196 24.62C262.193 24.62 261.481 24.865 261.061 25.355C260.641 25.845 260.431 26.3467 260.431 26.86C260.431 27.7 261.073 28.4233 262.356 29.03C262.939 29.2867 263.791 29.59 264.911 29.94C266.684 30.5 267.933 30.955 268.656 31.305C269.659 31.795 270.464 32.4367 271.071 33.23C271.701 34.0233 272.016 34.9683 272.016 36.065C272.016 37.7683 271.409 39.0983 270.196 40.055C269.006 40.9883 267.466 41.455 265.576 41.455C264.899 41.455 264.258 41.3967 263.651 41.28C263.068 41.1633 262.379 41 261.586 40.79C260.863 40.58 260.384 40.475 260.151 40.475C259.498 40.475 258.891 40.8367 258.331 41.56L256.826 35.54Z" fill="#2E4049"/>
<path d="M20.7563 5.33409C20.7265 5.10565 20.4297 5.14311 20.4059 5.37226C18.4995 23.6999 8.10593 23.0591 1.98436 21.3021C1.75139 21.2352 1.57609 21.6378 1.77806 21.7717C13.5937 29.61 12.428 38.2126 7.38994 46.8478C7.27408 47.0463 7.51897 47.2499 7.68441 47.0903C19.4618 35.7233 21.8669 13.834 20.7563 5.33409Z" fill="#FF6D6D"/>
<circle cx="9.5" cy="12.5" r="4.5" fill="#77D7D3"/>
</svg>
