<svg width="19" height="19" fill="none" xmlns="http://www.w3.org/2000/svg"><path d="M9.379 0C4.378 0 .322 4.053.322 9.053c0 3.705 2.232 6.89 5.422 8.292-.024-.63-.004-1.39.158-2.077l1.164-4.934s-.29-.578-.29-1.431c0-1.342.775-2.344 1.746-2.344.825 0 1.22.618 1.22 1.358 0 .828-.529 2.065-.8 3.213-.226.962.481 1.742 1.431 1.742 1.715 0 2.871-2.203 2.871-4.814 0-1.984-1.338-3.467-3.768-3.467-2.745 0-4.46 2.049-4.46 4.336 0 .788.235 1.346.599 1.774.165.198.19.28.13.506-.045.165-.142.565-.187.727-.06.23-.247.311-.453.226-1.265-.517-1.856-1.9-1.856-3.459 0-2.57 2.172-5.654 6.474-5.654 3.456 0 5.733 2.502 5.733 5.185 0 3.553-1.977 6.204-4.888 6.204-.979 0-1.897-.53-2.212-1.128 0 0-.526 2.085-.639 2.49-.19.699-.566 1.394-.91 1.94a9.108 9.108 0 0 0 2.568.371c5.001 0 9.056-4.053 9.056-9.052 0-5-4.05-9.057-9.052-9.057Z" fill="#2E4049"/></svg>