<svg width="65" height="50" viewBox="0 0 65 50" fill="none" xmlns="http://www.w3.org/2000/svg">
<path id="&#226;&#128;&#156;" d="M51.606 49.2474C47.824 49.2474 44.591 47.9054 41.907 45.2214C39.345 42.4154 38.064 38.9994 38.064 34.9734C38.064 27.4094 40.26 20.6384 44.652 14.6604C49.166 8.56044 54.351 3.98544 60.207 0.935439L60.939 0.752441C61.915 0.752441 62.403 1.24044 62.403 2.21643C62.403 2.58244 62.22 2.94844 61.854 3.31444C58.926 5.87644 56.669 8.49944 55.083 11.1834C53.497 13.7454 52.704 16.0634 52.704 18.1374C52.704 20.3334 53.863 22.1634 56.181 23.6274C58.987 25.2134 61.122 26.8604 62.586 28.5684C64.172 30.2764 64.965 32.6554 64.965 35.7054C64.965 39.4874 63.623 42.7204 60.939 45.4044C58.377 47.9664 55.266 49.2474 51.606 49.2474ZM13.359 49.2474C9.699 49.2474 6.527 47.9054 3.843 45.2214C1.281 42.4154 0 38.9994 0 34.9734C0 27.4094 2.257 20.6384 6.771 14.6604C11.285 8.56044 16.348 4.04644 21.96 1.11844C22.204 0.996438 22.509 0.935439 22.875 0.935439C23.729 0.935439 24.156 1.42344 24.156 2.39944C24.156 2.76544 24.034 3.07044 23.79 3.31444C20.862 5.99844 18.605 8.68243 17.019 11.3664C15.433 13.9284 14.64 16.1854 14.64 18.1374C14.64 20.9434 15.799 22.7734 18.117 23.6274C20.801 24.9694 22.875 26.5554 24.339 28.3854C25.925 30.2154 26.718 32.6554 26.718 35.7054C26.718 39.4874 25.437 42.7204 22.875 45.4044C20.313 47.9664 17.141 49.2474 13.359 49.2474Z" fill="white"/>
</svg>
