<svg width="104" height="104" fill="none" xmlns="http://www.w3.org/2000/svg"><circle cx="52.185" cy="51.767" r="51.767" fill="#fff"/><path d="M66.207 69.51c-2.77 0-5.137-.983-7.102-2.948-1.877-2.055-2.814-4.556-2.814-7.504 0-5.539 1.608-10.497 4.824-14.874 3.305-4.467 7.101-7.817 11.39-10.05L73.04 34c.715 0 1.072.357 1.072 1.072 0 .268-.133.536-.401.804-2.144 1.876-3.797 3.797-4.959 5.762-1.16 1.876-1.742 3.573-1.742 5.092 0 1.608.85 2.948 2.546 4.02 2.055 1.161 3.618 2.367 4.69 3.618 1.162 1.25 1.743 2.993 1.743 5.226 0 2.77-.983 5.137-2.949 7.102-1.876 1.876-4.154 2.814-6.834 2.814Zm-28.006 0c-2.68 0-5.003-.983-6.968-2.948-1.877-2.055-2.814-4.556-2.814-7.504 0-5.539 1.652-10.497 4.957-14.874 3.306-4.467 7.013-7.772 11.123-9.916.178-.09.401-.134.67-.134.625 0 .938.357.938 1.072a.91.91 0 0 1-.268.67c-2.145 1.965-3.797 3.93-4.959 5.896-1.16 1.876-1.742 3.529-1.742 4.958 0 2.055.85 3.395 2.547 4.02 1.965.983 3.483 2.144 4.555 3.484 1.162 1.34 1.742 3.127 1.742 5.36 0 2.77-.938 5.137-2.813 7.102-1.877 1.876-4.2 2.814-6.968 2.814Z" fill="#2E4049"/></svg>