<svg width="48" height="36" fill="none" xmlns="http://www.w3.org/2000/svg"><path d="M38.206 35.51c-2.769 0-5.136-.983-7.102-2.948-1.875-2.055-2.813-4.556-2.813-7.504 0-5.539 1.607-10.497 4.823-14.874 3.306-4.467 7.103-7.817 11.39-10.05L45.041 0c.714 0 1.072.357 1.072 1.072 0 .268-.135.536-.402.804-2.145 1.876-3.797 3.797-4.959 5.762-1.16 1.876-1.742 3.573-1.742 5.092 0 1.608.85 2.948 2.547 4.02 2.054 1.161 3.617 2.367 4.69 3.618 1.16 1.25 1.742 2.993 1.742 5.226 0 2.77-.983 5.137-2.948 7.102-1.877 1.876-4.154 2.814-6.834 2.814Zm-28.006 0c-2.68 0-5.002-.983-6.968-2.948C1.356 30.507.418 28.006.418 25.058c0-5.539 1.653-10.497 4.958-14.874C8.682 5.717 12.39 2.412 16.498.268c.18-.09.402-.134.67-.134.626 0 .939.357.939 1.072a.91.91 0 0 1-.268.67c-2.144 1.965-3.797 3.93-4.958 5.896-1.162 1.876-1.742 3.529-1.742 4.958 0 2.055.848 3.395 2.546 4.02 1.965.983 3.484 2.144 4.556 3.484 1.16 1.34 1.742 3.127 1.742 5.36 0 2.77-.939 5.137-2.814 7.102-1.877 1.876-4.2 2.814-6.969 2.814Z" fill="#2E4049"/></svg>