<svg width="20" height="16" fill="none" xmlns="http://www.w3.org/2000/svg"><path d="M19.322 2.225a8.03 8.03 0 0 1-2.25.61A3.88 3.88 0 0 0 18.796.7c-.77.451-1.612.767-2.49.935a3.944 3.944 0 0 0-2.86-1.221c-2.166 0-3.918 1.727-3.918 3.856-.002.296.032.59.1.879a11.17 11.17 0 0 1-8.077-4.03 3.808 3.808 0 0 0-.533 1.937c0 1.337.698 2.519 1.751 3.211a3.88 3.88 0 0 1-1.782-.481v.047c0 1.87 1.353 3.426 3.144 3.78a4.01 4.01 0 0 1-1.032.136c-.248 0-.494-.024-.737-.072.498 1.532 1.947 2.646 3.663 2.678a7.942 7.942 0 0 1-5.802 1.596 11.088 11.088 0 0 0 5.998 1.742c7.216 0 11.159-5.877 11.159-10.974 0-.167-.005-.334-.013-.497a7.898 7.898 0 0 0 1.955-1.998Z" fill="#2E4049"/></svg>